<svg width="1024" height="1024" viewBox="0 0 1024 1024" fill="none" xmlns="http://www.w3.org/2000/svg">
<rect width="1024" height="1024" rx="250" fill="url(#paint0_linear_1236_6328)"/>
<path fill-rule="evenodd" clip-rule="evenodd" d="M512 673.891C650.071 673.891 762 564.897 762 430.446C762 295.994 650.071 187 512 187C373.929 187 262 295.994 262 430.446C262 564.897 373.929 673.891 512 673.891ZM512 552.169C581.036 552.169 637 497.671 637 430.446C637 363.22 581.036 308.723 512 308.723C442.964 308.723 387 363.22 387 430.446C387 497.671 442.964 552.169 512 552.169Z" fill="#E2C044"/>
<path d="M407.066 525.936C409.707 517.636 417.415 512 426.125 512H602.207C611.066 512 618.869 517.827 621.384 526.321L671.896 696.902C675.692 709.719 666.087 722.581 652.719 722.581H371.851C358.315 722.581 348.689 709.416 352.793 696.517L407.066 525.936Z" fill="#A8B4B9"/>
<path fill-rule="evenodd" clip-rule="evenodd" d="M665.75 788.311V790.483C665.75 793.063 664.773 795.414 663.17 797.188C649.833 819.839 586.385 837 510.125 837C433.865 837 370.417 819.839 357.08 797.188C355.477 795.414 354.5 793.063 354.5 790.483V788.311V756.925C354.5 751.402 358.977 746.925 364.5 746.925H428.104C451.919 742.296 480.024 739.622 510.125 739.622C540.226 739.622 568.331 742.296 592.145 746.925H655.75C661.273 746.925 665.75 751.403 665.75 756.925V788.311Z" fill="#E2C044"/>
<rect x="422" y="756.663" width="172.5" height="35.2996" rx="8" fill="#136D94"/>
<rect x="353.25" y="707.974" width="317.5" height="53.5581" rx="10" fill="#136D94"/>
<defs>
<linearGradient id="paint0_linear_1236_6328" x1="504" y1="770.5" x2="507.5" y2="-1495.5" gradientUnits="userSpaceOnUse">
<stop stop-color="#383F51"/>
<stop offset="1" stop-color="#7F8EB7"/>
</linearGradient>
</defs>
</svg>
