<svg width="500" height="650" viewBox="0 0 500 650" fill="none" xmlns="http://www.w3.org/2000/svg">
<path fill-rule="evenodd" clip-rule="evenodd" d="M250 486.891C388.071 486.891 500 377.897 500 243.446C500 108.994 388.071 0 250 0C111.929 0 0 108.994 0 243.446C0 377.897 111.929 486.891 250 486.891ZM250 365.169C319.036 365.169 375 310.671 375 243.446C375 176.22 319.036 121.723 250 121.723C180.964 121.723 125 176.22 125 243.446C125 310.671 180.964 365.169 250 365.169Z" fill="#E2C044"/>
<path d="M145.066 338.936C147.707 330.636 155.415 325 164.125 325H340.207C349.066 325 356.869 330.827 359.384 339.321L409.896 509.902C413.692 522.719 404.087 535.581 390.719 535.581H109.851C96.3153 535.581 86.6887 522.416 90.7927 509.517L145.066 338.936Z" fill="#A8B4B9"/>
<path fill-rule="evenodd" clip-rule="evenodd" d="M403.75 601.311V603.483C403.75 606.063 402.773 608.414 401.17 610.188C387.833 632.839 324.385 650 248.125 650C171.865 650 108.417 632.839 95.0801 610.188C93.4765 608.414 92.5 606.063 92.5 603.483V601.311V569.925C92.5 564.402 96.9772 559.925 102.5 559.925H166.104C189.919 555.296 218.024 552.622 248.125 552.622C278.226 552.622 306.331 555.296 330.145 559.925H393.75C399.273 559.925 403.75 564.403 403.75 569.925V601.311Z" fill="#E2C044"/>
<rect x="160" y="569.663" width="172.5" height="35.2996" rx="8" fill="#136D94"/>
<rect x="91.25" y="520.974" width="317.5" height="53.5581" rx="10" fill="#136D94"/>
</svg>
