<svg width="423" height="397" viewBox="0 0 423 397" fill="none" xmlns="http://www.w3.org/2000/svg">
<path d="M414.188 396.893H7.988C3.595 396.893 0 393.298 0 388.905C0 384.512 3.595 380.917 7.988 380.917H414.188C418.581 380.917 422.176 384.512 422.176 388.905C422.176 393.298 418.581 396.893 414.188 396.893Z" fill="#E6E6E6"/>
<path d="M382.106 347.209H47.2441V20.979C47.2441 9.392 56.6361 0 68.2231 0H361.127C372.713 0 382.106 9.393 382.106 20.979V347.209Z" fill="#E2D4A1"/>
<path d="M362.308 0H69.4041C56.6361 0 47.2441 9.393 47.2441 20.979V347.209H382.106V20.979C382.106 9.392 372.713 0 362.308 0ZM371.509 335.209H57.8401V31.59C57.8401 20.771 66.6111 12 77.4301 12H351.919C362.738 12 371.509 20.77 371.509 31.59V335.209Z" fill="#CDBD83"/>
<path d="M211.028 217.252C153.819 217.252 98.7631 213.494 47.2441 206.557V347.21H382.106V205.548C328.5 213.128 270.947 217.252 211.028 217.252Z" fill="#CDBD83"/>
<path d="M352.367 181.333H72.6513C70.2463 181.333 68.2783 179.365 68.2783 176.96V169.241C68.2783 166.836 70.2463 164.868 72.6513 164.868H352.366C354.771 164.868 356.739 166.836 356.739 169.241V176.96C356.74 179.365 354.772 181.333 352.367 181.333Z" fill="#8AD1C7"/>
<path d="M352.367 103.505H72.6513C70.2463 103.505 68.2783 101.537 68.2783 99.1316V91.4126C68.2783 89.0076 70.2463 87.0396 72.6513 87.0396H352.366C354.771 87.0396 356.739 89.0076 356.739 91.4126V99.1316C356.74 101.538 354.772 103.505 352.367 103.505Z" fill="#8AD1C7"/>
<path d="M351.461 92.5209H73.5573C70.6543 92.5209 68.2783 90.1449 68.2783 87.2419C68.2783 84.3379 70.6533 81.9629 73.5573 81.9629H351.461C354.364 81.9629 356.74 84.3389 356.74 87.2419C356.74 90.1459 354.364 92.5209 351.461 92.5209Z" fill="#6FA8A0"/>
<path d="M351.461 87.2421H73.5573C71.6183 87.2421 69.9333 86.1711 69.0163 84.6021C68.5593 85.3821 68.2783 86.2771 68.2783 87.2421C68.2783 90.1451 70.6533 92.521 73.5573 92.521H351.461C354.365 92.521 356.74 90.1451 356.74 87.2421C356.74 86.2771 356.459 85.3831 356.002 84.6021C355.084 86.1711 353.4 87.2421 351.461 87.2421Z" fill="#669C94"/>
<path d="M95.4463 46.4668H100.29V49.5728C100.29 52.0178 101.147 54.3848 102.712 56.2628C104.277 58.1408 105.134 60.5088 105.134 62.9528V82.0538C105.134 82.0538 96.0914 82.0538 95.4454 82.0538C94.7994 82.0538 85.7563 82.0538 85.7563 82.0538V62.9528C85.7563 60.5078 86.6133 58.1408 88.1783 56.2628C89.7433 54.3848 90.6003 52.0168 90.6003 49.5728V46.4668H95.4463Z" fill="#BAA197"/>
<path d="M100.578 77.6549H90.3145C89.4655 77.6549 88.7715 76.9609 88.7715 76.1119V64.3409C88.7715 63.4919 89.4655 62.7979 90.3145 62.7979H100.578C101.427 62.7979 102.121 63.4919 102.121 64.3409V76.1119C102.121 76.9609 101.427 77.6549 100.578 77.6549Z" fill="white"/>
<path d="M99.9685 48.62H90.9255C89.7415 48.62 88.7725 47.651 88.7725 46.467C88.7725 45.283 89.7415 44.314 90.9255 44.314H99.9685C101.152 44.314 102.121 45.283 102.121 46.467C102.121 47.651 101.152 48.62 99.9685 48.62Z" fill="#8A7770"/>
<path d="M242.976 127.811H247.821V130.917C247.821 133.362 248.678 135.729 250.243 137.607C251.808 139.485 252.665 141.853 252.665 144.297V163.398C252.665 163.398 243.622 163.398 242.976 163.398C242.33 163.398 233.287 163.398 233.287 163.398V144.297C233.287 141.852 234.144 139.485 235.709 137.607C237.274 135.729 238.131 133.361 238.131 130.917V127.811H242.976Z" fill="#EAE3E1"/>
<path d="M248.107 158.999H237.843C236.994 158.999 236.3 158.305 236.3 157.456V145.685C236.3 144.836 236.994 144.142 237.843 144.142H248.107C248.956 144.142 249.65 144.836 249.65 145.685V157.456C249.65 158.305 248.956 158.999 248.107 158.999Z" fill="#C7C1BF"/>
<path d="M247.497 129.964H238.454C237.27 129.964 236.301 128.995 236.301 127.811C236.301 126.627 237.27 125.658 238.454 125.658H247.497C248.681 125.658 249.65 126.627 249.65 127.811C249.65 128.995 248.681 129.964 247.497 129.964Z" fill="#C7C1BF"/>
<path d="M253.53 52.6201H257.547V55.1961C257.547 57.2231 258.258 59.1871 259.556 60.7441C260.854 62.3011 261.565 64.2651 261.565 66.2921V82.1321C261.565 82.1321 254.066 82.1321 253.53 82.1321C252.994 82.1321 245.495 82.1321 245.495 82.1321V66.2921C245.495 64.2651 246.206 62.3011 247.504 60.7441C248.802 59.1871 249.513 57.2231 249.513 55.1961V52.6201H253.53Z" fill="#EAE3E1"/>
<path d="M252.28 67.5131V77.1331C252.28 77.8751 252.887 78.4831 253.63 78.4831H261.565V66.2921C261.565 66.2491 261.56 66.2061 261.559 66.1631H253.63C252.887 66.1631 252.28 66.7711 252.28 67.5131Z" fill="#C7C1BF"/>
<path d="M257.279 54.4059H249.78C248.798 54.4059 247.995 53.6019 247.995 52.6209C247.995 51.6389 248.798 50.8359 249.78 50.8359H257.279C258.261 50.8359 259.064 51.6389 259.064 52.6209C259.065 53.6019 258.261 54.4059 257.279 54.4059Z" fill="#6FA8A0"/>
<path d="M351.461 173.866H73.5573C70.6543 173.866 68.2783 171.49 68.2783 168.587C68.2783 165.684 70.6533 163.308 73.5573 163.308H351.461C354.364 163.308 356.74 165.684 356.74 168.587C356.74 171.49 354.364 173.866 351.461 173.866Z" fill="#6FA8A0"/>
<path d="M351.461 168.587H73.5573C71.6183 168.587 69.9333 167.516 69.0163 165.947C68.5593 166.727 68.2783 167.622 68.2783 168.587C68.2783 171.49 70.6533 173.866 73.5573 173.866H351.461C354.365 173.866 356.74 171.49 356.74 168.587C356.74 167.622 356.459 166.728 356.002 165.947C355.084 167.516 353.4 168.587 351.461 168.587Z" fill="#669C94"/>
<path d="M139.355 52.8599H115.869L118.94 81.9629H136.284L139.355 52.8599Z" fill="#EAE3E1"/>
<path d="M134.157 58.3398H121.067L122.778 76.4828H132.446L134.157 58.3398Z" fill="#C7C1BF"/>
<path d="M140.288 55.1017H114.935C113.697 55.1017 112.692 54.0977 112.692 52.8587C112.692 51.6197 113.696 50.6157 114.935 50.6157H140.288C141.527 50.6157 142.531 51.6197 142.531 52.8587C142.531 54.0977 141.527 55.1017 140.288 55.1017Z" fill="white"/>
<path d="M345.205 134.205H321.72L324.79 163.308H342.134L345.205 134.205Z" fill="#D3EDE9"/>
<path d="M340.007 139.685H326.917L328.628 157.828H338.296L340.007 139.685Z" fill="white"/>
<path d="M346.138 136.447H320.785C319.547 136.447 318.542 135.443 318.542 134.204C318.542 132.965 319.546 131.961 320.785 131.961H346.138C347.377 131.961 348.382 132.965 348.382 134.204C348.382 135.443 347.376 136.447 346.138 136.447Z" fill="#6FA8A0"/>
<path d="M148.416 81.9626H167.892L165.346 57.8276H150.963L148.416 81.9626Z" fill="#D1B8DE"/>
<path d="M152.726 77.418H163.582L162.163 62.373H154.146L152.726 77.418Z" fill="white"/>
<path d="M166.325 59.2728H149.984C149.186 59.2728 148.539 58.6258 148.539 57.8278C148.539 57.0298 149.186 56.3818 149.984 56.3818H166.325C167.123 56.3818 167.77 57.0288 167.77 57.8278C167.77 58.6258 167.123 59.2728 166.325 59.2728Z" fill="white"/>
<path d="M319.361 24.3638H302.316C298.062 24.3638 294.582 27.8448 294.582 32.0988V37.4698C294.582 41.7238 298.062 45.2048 302.316 45.2048H319.361C323.615 45.2048 327.096 41.7238 327.096 37.4698V32.0988C327.096 27.8438 323.615 24.3638 319.361 24.3638ZM322.807 36.4628C322.807 39.4958 320.326 41.9768 317.293 41.9768H304.383C301.35 41.9768 298.869 39.4958 298.869 36.4628V33.1038C298.869 30.0708 301.35 27.5898 304.383 27.5898H317.293C320.326 27.5898 322.807 30.0708 322.807 33.1038V36.4628Z" fill="#6FA8A0"/>
<path d="M281.543 34.7837H340.132C342.338 34.7837 344.127 36.5727 344.127 38.7787V77.9687C344.127 80.1747 342.339 81.9637 340.132 81.9637H281.543C279.337 81.9637 277.548 80.1757 277.548 77.9687V38.7787C277.549 36.5717 279.337 34.7837 281.543 34.7837Z" fill="white"/>
<path d="M343.54 36.7207L340.241 74.0227C340.068 75.9817 338.366 77.5537 336.438 77.5537H285.239C283.311 77.5537 281.609 75.9817 281.436 74.0227L278.137 36.7207C277.772 37.3237 277.55 38.0227 277.55 38.7787V77.9687C277.55 80.1747 279.339 81.9637 281.545 81.9637H340.134C342.34 81.9637 344.129 80.1757 344.129 77.9687V38.7787C344.126 38.0217 343.904 37.3227 343.54 36.7207Z" fill="#E8E8E8"/>
<path d="M310.837 73.8746C319.399 73.8746 326.339 66.9341 326.339 58.3726C326.339 49.8111 319.399 42.8706 310.837 42.8706C302.276 42.8706 295.335 49.8111 295.335 58.3726C295.335 66.9341 302.276 73.8746 310.837 73.8746Z" fill="#8AD1C7"/>
<path d="M316.484 54.982H314.229V52.727C314.229 50.861 312.703 49.335 310.837 49.335C308.972 49.335 307.445 50.861 307.445 52.727V54.982H305.19C303.325 54.982 301.798 56.508 301.798 58.374C301.798 60.24 303.324 61.766 305.19 61.766H307.445V64.021C307.445 65.887 308.971 67.413 310.837 67.413C312.703 67.413 314.229 65.887 314.229 64.021V61.766H316.484C318.35 61.766 319.876 60.24 319.876 58.374C319.876 56.508 318.35 54.982 316.484 54.982Z" fill="white"/>
<path d="M199.958 115.412H185.77C182.229 115.412 179.332 118.309 179.332 121.85V126.321C179.332 129.862 182.229 132.759 185.77 132.759H199.958C203.499 132.759 206.396 129.862 206.396 126.321V121.85C206.397 118.31 203.499 115.412 199.958 115.412ZM202.827 125.484C202.827 128.008 200.762 130.074 198.237 130.074H187.491C184.967 130.074 182.901 128.008 182.901 125.484V122.688C182.901 120.164 184.966 118.098 187.491 118.098H198.237C200.761 118.098 202.827 120.163 202.827 122.688V125.484Z" fill="#6FA8A0"/>
<path d="M168.479 124.085H217.248C219.084 124.085 220.573 125.574 220.573 127.41V160.031C220.573 161.867 219.084 163.356 217.248 163.356H168.479C166.642 163.356 165.154 161.867 165.154 160.031V127.41C165.154 125.574 166.642 124.085 168.479 124.085Z" fill="#D3EDE9"/>
<path d="M220.084 125.698L217.338 156.748C217.194 158.379 215.777 159.687 214.172 159.687H171.554C169.949 159.687 168.533 158.379 168.388 156.748L165.642 125.698C165.338 126.2 165.153 126.782 165.153 127.411V160.032C165.153 161.868 166.642 163.357 168.478 163.357H217.247C219.083 163.357 220.572 161.868 220.572 160.032V127.411C220.573 126.782 220.388 126.2 220.084 125.698Z" fill="#BAE0DB"/>
<path d="M192.863 156.625C199.99 156.625 205.767 150.848 205.767 143.721C205.767 136.595 199.99 130.817 192.863 130.817C185.737 130.817 179.959 136.595 179.959 143.721C179.959 150.848 185.737 156.625 192.863 156.625Z" fill="#8AD1C7"/>
<path d="M197.564 140.899H195.687V139.022C195.687 137.469 194.417 136.199 192.864 136.199C191.311 136.199 190.041 137.469 190.041 139.022V140.899H188.164C186.611 140.899 185.341 142.169 185.341 143.722C185.341 145.275 186.612 146.545 188.164 146.545H190.041V148.422C190.041 149.975 191.312 151.245 192.864 151.245C194.417 151.245 195.687 149.974 195.687 148.422V146.545H197.564C199.117 146.545 200.387 145.275 200.387 143.722C200.387 142.169 199.116 140.899 197.564 140.899Z" fill="white"/>
<path d="M227.782 59.2729H188.803V81.9629H227.782V59.2729Z" fill="white"/>
<path d="M220.759 68.8479C222.88 68.8479 224.598 67.1291 224.598 65.0089C224.598 62.8887 222.88 61.1699 220.759 61.1699C218.639 61.1699 216.92 62.8887 216.92 65.0089C216.92 67.1291 218.639 68.8479 220.759 68.8479Z" fill="#95E2D7"/>
<path d="M220.759 79.4729C222.88 79.4729 224.598 77.7541 224.598 75.6339C224.598 73.5137 222.88 71.7949 220.759 71.7949C218.639 71.7949 216.92 73.5137 216.92 75.6339C216.92 77.7541 218.639 79.4729 220.759 79.4729Z" fill="#95E2D7"/>
<path d="M219.042 56.3818H180.062V81.9628H219.042V56.3818Z" fill="#DECBC3"/>
<path d="M202.792 68.707H180.062V79.045H202.792V68.707Z" fill="white"/>
<path d="M214.621 63.751H184.484V65.751H214.621V63.751Z" fill="white"/>
<path d="M207.456 58.7949H184.458V60.7949H207.456V58.7949Z" fill="white"/>
<path d="M310.098 140.668H271.119V163.358H310.098V140.668Z" fill="white"/>
<path d="M302.194 150.242C304.315 150.242 306.033 148.523 306.033 146.403C306.033 144.283 304.315 142.564 302.194 142.564C300.074 142.564 298.355 144.283 298.355 146.403C298.355 148.523 300.074 150.242 302.194 150.242Z" fill="#8AD1C7"/>
<path d="M302.194 160.867C304.315 160.867 306.033 159.148 306.033 157.028C306.033 154.908 304.315 153.189 302.194 153.189C300.074 153.189 298.355 154.908 298.355 157.028C298.355 159.148 300.074 160.867 302.194 160.867Z" fill="#8AD1C7"/>
<path d="M301.358 137.777H262.378V163.358H301.358V137.777Z" fill="#D1B8DE"/>
<path d="M285.108 150.101H262.378V160.439H285.108V150.101Z" fill="white"/>
<path d="M296.937 145.145H266.8V147.145H296.937V145.145Z" fill="white"/>
<path d="M289.771 140.189H266.773V142.189H289.771V140.189Z" fill="white"/>
<path d="M97.4353 128.619C97.2853 126.182 97.2653 124.23 94.7933 124.23H85.2963C82.8243 124.23 82.8043 126.182 82.6543 128.619C80.0003 129.093 77.9683 131.421 77.9683 134.205V157.628C77.9683 160.752 80.5243 163.308 83.6483 163.308H96.4433C99.5673 163.308 102.123 160.752 102.123 157.628V134.205C102.121 131.42 100.088 129.093 97.4353 128.619Z" fill="#D1B8DE"/>
<path d="M93.8435 134.416H86.2455C84.2545 134.416 82.6255 136.045 82.6255 138.036V153.798C82.6255 155.789 84.2545 157.418 86.2455 157.418H93.8435C95.8345 157.418 97.4635 155.789 97.4635 153.798V138.036C97.4635 136.045 95.8345 134.416 93.8435 134.416Z" fill="#EAE3E1"/>
<path d="M96.8233 126.089H83.2643C82.2423 126.089 81.4053 125.253 81.4053 124.23C81.4053 123.208 82.2413 122.371 83.2643 122.371H96.8233C97.8453 122.371 98.6823 123.207 98.6823 124.23C98.6823 125.253 97.8463 126.089 96.8233 126.089Z" fill="white"/>
<path d="M134.599 120.986L131.124 132.705C130.381 135.212 129.815 137.768 129.431 140.354L127.372 154.234C127.372 154.234 125.379 159.775 122.139 159.798C118.898 159.775 116.905 154.234 116.905 154.234L114.845 140.354C114.461 137.767 113.896 135.211 113.152 132.705L109.677 120.986C117.676 117.788 126.599 117.788 134.599 120.986Z" fill="white"/>
<path d="M133.31 125.331L134.598 120.986C126.599 117.787 117.675 117.787 109.676 120.986L110.964 125.331C118.195 122.778 126.081 122.778 133.31 125.331Z" fill="#EAE3E1"/>
<path d="M126.192 153.231H118.084C116.556 153.231 115.317 154.47 115.317 155.997V160.54C115.317 162.068 116.556 163.307 118.084 163.307H126.192C127.72 163.307 128.959 162.068 128.959 160.54V155.997C128.958 154.47 127.72 153.231 126.192 153.231Z" fill="#BAA197"/>
<path d="M127.927 158.27H116.348C115.186 158.27 114.243 159.212 114.243 160.375V161.204C114.243 162.366 115.185 163.309 116.348 163.309H127.927C129.089 163.309 130.032 162.367 130.032 161.204V160.375C130.032 159.212 129.09 158.27 127.927 158.27Z" fill="#BAA197"/>
<path d="M125.054 134.141H119.221L116.304 139.193L119.221 144.245H125.054L127.971 139.193L125.054 134.141Z" fill="#EAE3E1"/>
<path d="M149.015 109.461C148.705 109.461 148.451 109.715 148.451 110.025V127.237C148.451 127.547 148.705 127.801 149.015 127.801C149.325 127.801 149.579 127.547 149.579 127.237V110.025C149.579 109.715 149.325 109.461 149.015 109.461Z" fill="#D3EDE9"/>
<path d="M149.015 119.087C147.559 119.087 146.368 120.278 146.368 121.734V134.779C146.368 136.235 147.559 137.426 149.015 137.426C150.471 137.426 151.662 136.235 151.662 134.779V121.734C151.662 120.278 150.471 119.087 149.015 119.087Z" fill="white"/>
<path d="M149.918 129.091H148.113C147.153 129.091 146.368 129.876 146.368 130.836V161.087C146.368 162.047 147.153 162.832 148.113 162.832H149.918C150.878 162.832 151.663 162.047 151.663 161.087V130.836C151.662 129.876 150.877 129.091 149.918 129.091Z" fill="white"/>
<path d="M151.489 122.044H146.542C145.301 122.044 144.285 123.06 144.285 124.301V153.306C144.285 153.492 144.437 153.644 144.623 153.644H153.409C153.595 153.644 153.747 153.492 153.747 153.306V124.301C153.746 123.06 152.73 122.044 151.489 122.044Z" fill="#6FA8A0"/>
<path d="M153.536 154.864H144.495C143.953 154.864 143.51 154.421 143.51 153.879C143.51 153.337 143.953 152.894 144.495 152.894H153.536C154.078 152.894 154.521 153.337 154.521 153.879C154.521 154.42 154.077 154.864 153.536 154.864Z" fill="#D3EDE9"/>
<path d="M153.536 163.308H144.495C143.953 163.308 143.51 162.865 143.51 162.323C143.51 161.781 143.953 161.338 144.495 161.338H153.536C154.078 161.338 154.521 161.781 154.521 162.323C154.521 162.865 154.077 163.308 153.536 163.308Z" fill="#D3EDE9"/>
<path d="M147.899 141.716H144.284V142.853H147.899C148.212 142.853 148.468 142.597 148.468 142.284C148.468 141.971 148.212 141.716 147.899 141.716Z" fill="white"/>
<path d="M147.899 137.667H144.284V138.804H147.899C148.212 138.804 148.468 138.548 148.468 138.236C148.468 137.924 148.212 137.667 147.899 137.667Z" fill="white"/>
<path d="M148.468 146.333C148.468 146.02 148.212 145.765 147.899 145.765H144.284V146.902H147.899C148.212 146.901 148.468 146.646 148.468 146.333Z" fill="white"/>
<path d="M144.285 126.658H147.9C148.213 126.658 148.469 126.402 148.469 126.089C148.469 125.776 148.213 125.521 147.9 125.521H144.285V126.658Z" fill="white"/>
<path d="M147.899 133.618H144.284V134.755H147.899C148.212 134.755 148.468 134.499 148.468 134.187C148.468 133.874 148.212 133.618 147.899 133.618Z" fill="white"/>
<path d="M148.468 150.382C148.468 150.069 148.212 149.813 147.899 149.813H144.284V150.95H147.899C148.212 150.95 148.468 150.694 148.468 150.382Z" fill="white"/>
<path d="M147.899 129.569H144.284V130.706H147.899C148.212 130.706 148.468 130.45 148.468 130.137C148.468 129.825 148.212 129.569 147.899 129.569Z" fill="white"/>
<path d="M291.85 138.641C289.385 137.548 288.263 134.637 289.356 132.172L294.147 121.371C295.24 118.906 298.151 117.784 300.616 118.877C303.081 119.97 304.203 122.881 303.11 125.346L298.319 136.147C297.225 138.613 294.315 139.735 291.85 138.641Z" fill="#FFC1A6"/>
<path d="M140.214 220.719C138.382 218.741 138.501 215.623 140.48 213.791L149.149 205.762C151.127 203.93 154.245 204.05 156.077 206.028C157.909 208.006 157.79 211.124 155.811 212.956L147.142 220.985C145.163 222.817 142.046 222.697 140.214 220.719Z" fill="#FFC1A6"/>
<path d="M290.565 124.238C283.347 128.04 269.486 152.213 269.486 152.213C262.899 145.974 254.734 128.236 243.37 120.089C232.006 111.942 218.289 112.576 218.289 112.576H208.33C208.33 112.576 191.793 114.417 181.341 131.705C173.012 145.482 169.041 163.46 167.024 173.398C165.007 183.336 146.384 202.005 142.714 206.758C142.714 206.758 150.297 210.223 153.566 220.207C161.146 217.694 174.769 205.394 181.296 192.276C187.029 180.752 192.446 159.187 192.446 159.187C192.446 159.187 181.622 227.021 187.332 257.775L245.993 248.731C249.855 209.406 244.595 161.578 244.595 161.578C244.595 161.578 262.706 181.607 270.262 181.588C283.775 181.553 302.941 146.581 304.462 134.314C303.338 133.997 293.264 130.992 290.565 124.238Z" fill="white"/>
<path d="M199.971 201.611L187.334 199.513C186.428 199.363 185.81 198.498 185.96 197.592L186.358 195.192C186.508 194.286 187.373 193.668 188.279 193.818L200.917 195.916C201.823 196.066 202.441 196.931 202.291 197.837L201.892 200.237C201.741 201.143 200.877 201.761 199.971 201.611Z" fill="#E3E3E3"/>
<path d="M234.605 201.611L247.243 199.513C248.149 199.363 248.767 198.498 248.617 197.592L248.219 195.192C248.069 194.286 247.204 193.668 246.298 193.818L233.66 195.916C232.754 196.066 232.136 196.931 232.287 197.837L232.685 200.237C232.835 201.143 233.699 201.761 234.605 201.611Z" fill="#E3E3E3"/>
<path d="M218.288 250.006C218.875 250.006 219.351 229.133 219.351 203.386C219.351 177.638 218.875 156.766 218.288 156.766C217.701 156.766 217.225 177.638 217.225 203.386C217.225 229.133 217.701 250.006 218.288 250.006Z" fill="#E3E3E3"/>
<path d="M208.329 110.98C208.329 110.98 212.376 115.983 218.288 119.613L228.247 112.57L232.428 114.709L218.288 171.054L203.969 113.595L208.329 110.98Z" fill="#58857E"/>
<path d="M218.288 123.857L216.135 124.828L213.01 153.583L218.192 162.958L223.094 154.153L220.016 124.701L218.288 123.857Z" fill="#95E2D7"/>
<path d="M201.454 114.479L202.035 132.408L209.826 135.979L204.403 143.089L218.192 173.101V159.508L204.917 113.026L201.454 114.479Z" fill="#E3E3E3"/>
<path d="M234.936 114.479L234.355 132.408L226.564 135.979L231.987 143.089L218.192 173.101V159.508L231.473 113.026L234.936 114.479Z" fill="#E3E3E3"/>
<path d="M218.288 120.101C212.81 120.101 208.329 110.297 208.329 110.297V94.2417C208.329 88.7637 212.81 84.2827 218.288 84.2827C223.765 84.2827 228.247 88.7637 228.247 94.2417V110.297C228.247 110.297 223.766 120.101 218.288 120.101Z" fill="#FFC1A6"/>
<path d="M218.288 84.2817C212.81 84.2817 208.329 88.7637 208.329 94.2407V106.471C212.074 108.367 216.296 109.444 220.759 109.444C223.352 109.444 225.862 109.075 228.247 108.401V94.2407C228.247 88.7637 223.766 84.2817 218.288 84.2817Z" fill="#D4A18A"/>
<path d="M228.247 112.569L218.288 119.612C212.376 115.982 208.329 110.979 208.329 110.979L203.969 113.595L205.057 117.963C207.955 121.376 212.753 123.614 218.191 123.614C223.903 123.614 228.903 121.144 231.742 117.438L232.427 114.709L228.247 112.569Z" fill="#58857E"/>
<path d="M218.288 127.972C220.561 127.972 222.403 126.129 222.403 123.857C222.403 121.584 220.561 119.742 218.288 119.742C216.016 119.742 214.173 121.584 214.173 123.857C214.173 126.129 216.016 127.972 218.288 127.972Z" fill="#95E2D7"/>
<path d="M190.585 80.5501C187.404 80.5501 184.802 77.9481 184.802 74.7671V71.6351C184.802 68.4541 187.404 65.8521 190.585 65.8521C193.766 65.8521 196.368 68.4541 196.368 71.6351V74.7671C196.368 77.9481 193.766 80.5501 190.585 80.5501Z" fill="#FFC1A6"/>
<path d="M190.585 77.4906C188.728 77.4906 187.209 75.9716 187.209 74.1146V72.2866C187.209 70.4306 188.728 68.9106 190.585 68.9106C192.442 68.9106 193.961 70.4296 193.961 72.2866V74.1146C193.96 75.9716 192.441 77.4906 190.585 77.4906Z" fill="#D4A18A"/>
<path d="M245.991 80.5501C242.81 80.5501 240.208 77.9481 240.208 74.7671V71.6351C240.208 68.4541 242.81 65.8521 245.991 65.8521C249.172 65.8521 251.775 68.4541 251.775 71.6351V74.7671C251.775 77.9481 249.172 80.5501 245.991 80.5501Z" fill="#FFC1A6"/>
<path d="M245.991 77.4906C244.134 77.4906 242.616 75.9716 242.616 74.1146V72.2866C242.616 70.4306 244.135 68.9106 245.991 68.9106C247.848 68.9106 249.367 70.4296 249.367 72.2866V74.1146C249.367 75.9716 247.848 77.4906 245.991 77.4906Z" fill="#D4A18A"/>
<path d="M218.288 105.925C203.051 105.925 190.585 93.4587 190.585 78.2217V66.0077C190.585 50.7707 203.051 38.3047 218.288 38.3047C233.525 38.3047 245.991 50.7707 245.991 66.0077V78.2217C245.991 93.4587 233.525 105.925 218.288 105.925Z" fill="#FFC1A6"/>
<path d="M245.726 79.5117C245.726 79.5117 238.038 64.7977 240.208 55.6017C242.378 46.4067 252.449 57.1817 245.726 79.5117Z" fill="#544037"/>
<path d="M218.198 120.101C218.198 120.101 214.283 113.918 208.329 108.465C208.329 108.465 204.137 108.002 201.454 114.479L209.276 123.857C209.276 123.857 211.17 117.148 218.198 120.101Z" fill="#6FA8A0"/>
<path d="M218.198 120.101C218.198 120.101 222.113 113.918 228.067 108.465C228.067 108.465 232.258 108.002 234.942 114.479L227.12 123.857C227.12 123.857 225.226 117.148 218.198 120.101Z" fill="#6FA8A0"/>
<path d="M200.378 73.2007V69.9737C200.378 67.7267 202.216 65.8887 204.463 65.8887C206.71 65.8887 208.548 67.7267 208.548 69.9737V73.2007" stroke="#705549" stroke-width="2" stroke-miterlimit="10" stroke-linecap="round" stroke-linejoin="round"/>
<path d="M227.557 73.2007V69.9737C227.557 67.7267 229.395 65.8887 231.642 65.8887C233.889 65.8887 235.727 67.7267 235.727 69.9737V73.2007" stroke="#705549" stroke-width="2" stroke-miterlimit="10" stroke-linecap="round" stroke-linejoin="round"/>
<path d="M218.198 70.2939C218.198 70.2939 220.367 78.2129 226.114 80.5499C226.114 80.5499 223.797 85.0279 218.287 84.2819C218.287 84.2819 219.529 82.851 221.151 81.311C221.151 81.311 218.425 75.0979 218.198 70.2939Z" fill="#D4A18A"/>
<path d="M209.163 88.5601C208.048 88.5601 207.226 89.6161 207.507 90.6951C208.757 95.4871 213.099 99.0261 218.283 99.0261C223.468 99.0261 227.817 95.4881 229.068 90.6961C229.35 89.6181 228.527 88.5611 227.412 88.5611H209.163V88.5601Z" fill="#B33B3B"/>
<path d="M228.978 90.9921C229.007 90.8921 229.043 90.7961 229.069 90.6951C229.351 89.6171 228.528 88.5601 227.413 88.5601H209.163C208.048 88.5601 207.226 89.6161 207.507 90.6951C207.534 90.7971 207.57 90.8951 207.599 90.9961C210.906 91.4951 214.5 91.7771 218.275 91.7771C222.06 91.7771 225.662 91.4931 228.978 90.9921Z" fill="white"/>
<path d="M218.283 99.0256C220.558 99.0256 222.671 98.3436 224.433 97.1746C222.674 96.0076 220.564 95.3276 218.292 95.3276C216.017 95.3276 213.904 96.0096 212.142 97.1786C213.901 98.3456 216.011 99.0256 218.283 99.0256Z" fill="#FF5454"/>
<path d="M190.586 79.5118C190.586 79.5118 195.666 75.5298 196.368 60.1248C196.368 60.1248 196.622 56.4438 201.455 56.4238C206.288 56.4038 246.273 76.4408 251.206 45.2608C251.206 45.2608 246.144 46.9798 238.614 41.8898C231.084 36.7998 204.729 28.3408 195.771 44.1248C195.771 44.1248 190.838 44.4728 188.89 50.8928C186.943 57.3118 187.606 72.1118 190.586 79.5118Z" fill="#705549"/>
<path d="M300.155 125.673C297.761 124.935 295.622 124.818 292.16 122.626C289.576 120.989 287.092 114.793 287.226 113.318C287.476 110.568 289.005 111.461 291.993 115.579C294.981 119.697 295.46 98.54 298.171 97.087C300.882 95.633 299.442 112.349 299.442 112.349C299.442 112.349 302.416 96.145 304.435 96.145C306.454 96.145 306.292 103.87 303.708 112.591C303.708 112.591 306.477 99.751 309.372 100.236C312.267 100.721 306.776 115.418 306.776 115.418C306.776 115.418 310.248 106.294 312.509 107.141C314.77 107.989 308.875 120.344 307.745 123.17C306.615 125.996 303.542 126.717 300.155 125.673Z" fill="#FFC1A6"/>
<path d="M385.849 388.708H39.1691C31.6631 388.708 25.5791 382.623 25.5791 375.118V245.242C25.5791 237.736 31.6631 231.652 39.1691 231.652H385.849C393.354 231.652 399.439 237.736 399.439 245.242V375.118C399.439 382.624 393.354 388.708 385.849 388.708Z" fill="#6FA8A0"/>
<path d="M38.6101 375.6V244.76C38.6101 237.521 44.4781 231.652 51.7181 231.652H39.1691C31.6631 231.652 25.5791 237.736 25.5791 245.242V375.118C25.5791 382.623 31.6631 388.708 39.1691 388.708H51.7181C44.4781 388.708 38.6101 382.84 38.6101 375.6Z" fill="#699E96"/>
<path d="M385.849 231.652H373.3C380.539 231.652 386.408 237.52 386.408 244.76V375.6C386.408 382.839 380.54 388.708 373.3 388.708H385.849C393.354 388.708 399.439 382.624 399.439 375.118V245.242C399.439 237.737 393.354 231.652 385.849 231.652Z" fill="#699E96"/>
<path d="M342.623 352.06H75.241C70.69 352.06 67 348.37 67 343.819V284.241C67 279.69 70.689 276 75.241 276H342.624C347.175 276 350.865 279.69 350.865 284.241V343.819C350.864 348.37 347.175 352.06 342.623 352.06Z" stroke="#699E96" stroke-width="4" stroke-miterlimit="10"/>
<path d="M111.611 294.989H120.706C122.31 294.989 123.756 295.273 125.045 295.841C126.333 296.397 127.356 297.25 128.114 298.399C128.885 299.536 129.27 300.964 129.27 302.681C129.27 304.387 128.885 305.839 128.114 307.04C127.356 308.227 126.333 309.136 125.045 309.768C123.756 310.387 122.31 310.697 120.706 310.697H117.276V320H111.611V294.989ZM117.276 306.225H119.133C119.904 306.225 120.592 306.111 121.198 305.884C121.817 305.656 122.31 305.296 122.676 304.804C123.043 304.298 123.226 303.635 123.226 302.814C123.226 301.98 123.043 301.324 122.676 300.844C122.31 300.351 121.817 299.997 121.198 299.782C120.592 299.568 119.904 299.46 119.133 299.46H117.276V306.225ZM146.806 309.939H138.166V320H132.519V294.989H138.166V304.993H146.806V294.989H152.434V320H146.806V309.939ZM164.832 294.989H170.46L180.332 320H174.287L172.468 314.979H162.843L161.005 320H154.941L164.832 294.989ZM164.737 310.014H170.592L167.693 301.81H167.636L164.737 310.014ZM182.218 294.989H192.412C193.865 294.989 195.16 295.292 196.297 295.898C197.433 296.504 198.33 297.382 198.987 298.532C199.657 299.669 199.991 301.027 199.991 302.606C199.991 304.185 199.707 305.479 199.139 306.49C198.583 307.488 197.913 308.24 197.13 308.745C196.347 309.238 195.621 309.534 194.951 309.635L201.034 320H194.667L189.248 310.071H187.884V320H182.218V294.989ZM187.884 306.149H190.385C191.395 306.149 192.28 305.903 193.037 305.41C193.795 304.917 194.174 304.046 194.174 302.795C194.174 301.545 193.802 300.679 193.056 300.199C192.311 299.707 191.433 299.46 190.423 299.46H187.884V306.149ZM231.4 294.989V320H225.753V305.277L225.999 301.09L225.033 305.884L220.827 317.992H215.275L211.087 305.884L210.14 301.09L210.386 305.277V320H204.721V294.989H212.679L217.719 311.682L218.06 313.671L218.401 311.682L223.441 294.989H231.4ZM244.029 294.989H249.657L259.529 320H253.484L251.665 314.979H242.039L240.202 320H234.138L244.029 294.989ZM243.934 310.014H249.789L246.89 301.81H246.833L243.934 310.014ZM273.663 314.846C274.825 314.846 275.88 314.676 276.828 314.335C277.788 313.993 278.501 313.659 278.969 313.33L281.394 318.143C280.8 318.648 279.783 319.16 278.343 319.678C276.916 320.196 275.217 320.455 273.246 320.455C271.402 320.455 269.671 320.133 268.055 319.488C266.438 318.844 265.01 317.941 263.772 316.779C262.547 315.604 261.581 314.233 260.873 312.667C260.178 311.088 259.831 309.376 259.831 307.532C259.831 305.688 260.178 303.976 260.873 302.397C261.568 300.806 262.528 299.422 263.753 298.248C264.991 297.073 266.419 296.163 268.036 295.519C269.665 294.862 271.402 294.534 273.246 294.534C275.217 294.534 276.916 294.793 278.343 295.311C279.783 295.829 280.8 296.34 281.394 296.845L278.969 301.658C278.501 301.317 277.788 300.982 276.828 300.654C275.88 300.313 274.825 300.142 273.663 300.142C272.375 300.142 271.25 300.345 270.29 300.749C269.33 301.14 268.528 301.684 267.884 302.378C267.24 303.073 266.76 303.856 266.444 304.728C266.128 305.599 265.97 306.515 265.97 307.475C265.97 308.448 266.128 309.376 266.444 310.261C266.76 311.132 267.24 311.915 267.884 312.61C268.528 313.305 269.33 313.855 270.29 314.259C271.25 314.65 272.375 314.846 273.663 314.846ZM291.229 311L282.608 294.989H289.486L294.052 304.519L298.638 294.989H305.478L296.895 311V320H291.229V311Z" fill="#699E96"/>
<path d="M212.509 248.352C276.954 248.352 339.563 249.462 399.439 251.553V245.242C399.439 237.737 393.355 231.652 385.849 231.652H39.1691C31.6631 231.652 25.5791 237.736 25.5791 245.242V251.553C85.4551 249.462 148.063 248.352 212.509 248.352Z" fill="#699E96"/>
<path d="M212.509 370.949C148.195 370.949 85.6211 369.952 25.5791 368.073V375.118C25.5791 380.756 29.0131 385.591 33.9031 387.649H391.114C396.004 385.592 399.438 380.756 399.438 375.118V368.073C339.397 369.953 276.823 370.949 212.509 370.949Z" fill="#699E96"/>
<path d="M397.389 237.729H24.7874C21.4454 237.729 18.7104 234.994 18.7104 231.652C18.7104 228.31 21.4454 225.575 24.7874 225.575H397.389C400.731 225.575 403.466 228.31 403.466 231.652C403.466 234.995 400.731 237.729 397.389 237.729Z" fill="#2D3748"/>
<path d="M397.389 231.652H24.7874C22.5514 231.652 20.5914 230.425 19.5364 228.614C19.0144 229.51 18.7104 230.546 18.7104 231.652C18.7104 234.994 21.4454 237.729 24.7874 237.729H397.389C400.731 237.729 403.466 234.994 403.466 231.652C403.466 230.546 403.161 229.509 402.64 228.614C401.584 230.425 399.625 231.652 397.389 231.652Z" fill="#C9E6E1"/>
<path d="M346.2 348.21H78.8181C74.2671 348.21 70.5771 344.52 70.5771 339.969V280.391C70.5771 275.84 74.2661 272.15 78.8181 272.15H346.201C350.752 272.15 354.442 275.839 354.442 280.391V339.969C354.441 344.521 350.752 348.21 346.2 348.21Z" stroke="#537D77" stroke-width="4" stroke-miterlimit="10" stroke-linecap="round" stroke-linejoin="round"/>
<path d="M115.611 290.989H124.706C126.31 290.989 127.756 291.273 129.045 291.841C130.333 292.397 131.356 293.25 132.114 294.399C132.885 295.536 133.27 296.964 133.27 298.681C133.27 300.387 132.885 301.839 132.114 303.04C131.356 304.227 130.333 305.136 129.045 305.768C127.756 306.387 126.31 306.697 124.706 306.697H121.276V316H115.611V290.989ZM121.276 302.225H123.133C123.904 302.225 124.592 302.111 125.198 301.884C125.817 301.656 126.31 301.296 126.676 300.804C127.043 300.298 127.226 299.635 127.226 298.814C127.226 297.98 127.043 297.324 126.676 296.844C126.31 296.351 125.817 295.997 125.198 295.782C124.592 295.568 123.904 295.46 123.133 295.46H121.276V302.225ZM150.806 305.939H142.166V316H136.519V290.989H142.166V300.993H150.806V290.989H156.434V316H150.806V305.939ZM168.832 290.989H174.46L184.332 316H178.287L176.468 310.979H166.843L165.005 316H158.941L168.832 290.989ZM168.737 306.014H174.592L171.693 297.81H171.636L168.737 306.014ZM186.218 290.989H196.412C197.865 290.989 199.16 291.292 200.297 291.898C201.433 292.504 202.33 293.382 202.987 294.532C203.657 295.669 203.991 297.027 203.991 298.606C203.991 300.185 203.707 301.479 203.139 302.49C202.583 303.488 201.913 304.24 201.13 304.745C200.347 305.238 199.621 305.534 198.951 305.635L205.034 316H198.667L193.248 306.071H191.884V316H186.218V290.989ZM191.884 302.149H194.385C195.395 302.149 196.28 301.903 197.037 301.41C197.795 300.917 198.174 300.046 198.174 298.795C198.174 297.545 197.802 296.679 197.056 296.199C196.311 295.707 195.433 295.46 194.423 295.46H191.884V302.149ZM235.4 290.989V316H229.753V301.277L229.999 297.09L229.033 301.884L224.827 313.992H219.275L215.087 301.884L214.14 297.09L214.386 301.277V316H208.721V290.989H216.679L221.719 307.682L222.06 309.671L222.401 307.682L227.441 290.989H235.4ZM248.029 290.989H253.657L263.529 316H257.484L255.665 310.979H246.039L244.202 316H238.138L248.029 290.989ZM247.934 306.014H253.789L250.89 297.81H250.833L247.934 306.014ZM277.663 310.846C278.825 310.846 279.88 310.676 280.828 310.335C281.788 309.993 282.501 309.659 282.969 309.33L285.394 314.143C284.8 314.648 283.783 315.16 282.343 315.678C280.916 316.196 279.217 316.455 277.246 316.455C275.402 316.455 273.671 316.133 272.055 315.488C270.438 314.844 269.01 313.941 267.772 312.779C266.547 311.604 265.581 310.233 264.873 308.667C264.178 307.088 263.831 305.376 263.831 303.532C263.831 301.688 264.178 299.976 264.873 298.397C265.568 296.806 266.528 295.422 267.753 294.248C268.991 293.073 270.419 292.163 272.036 291.519C273.665 290.862 275.402 290.534 277.246 290.534C279.217 290.534 280.916 290.793 282.343 291.311C283.783 291.829 284.8 292.34 285.394 292.845L282.969 297.658C282.501 297.317 281.788 296.982 280.828 296.654C279.88 296.313 278.825 296.142 277.663 296.142C276.375 296.142 275.25 296.345 274.29 296.749C273.33 297.14 272.528 297.684 271.884 298.378C271.24 299.073 270.76 299.856 270.444 300.728C270.128 301.599 269.97 302.515 269.97 303.475C269.97 304.448 270.128 305.376 270.444 306.261C270.76 307.132 271.24 307.915 271.884 308.61C272.528 309.305 273.33 309.855 274.29 310.259C275.25 310.65 276.375 310.846 277.663 310.846ZM295.229 307L286.608 290.989H293.486L298.052 300.519L302.638 290.989H309.478L300.895 307V316H295.229V307Z" fill="white"/>
<path d="M405.571 390.571H13.2392C9.69922 390.571 6.80322 387.675 6.80322 384.135C6.80322 380.595 9.69922 377.699 13.2392 377.699H405.571C409.111 377.699 412.007 380.595 412.007 384.135C412.007 387.674 409.111 390.571 405.571 390.571Z" fill="#537D77"/>
<path d="M405.571 384.135H13.2392C10.8712 384.135 8.79622 382.835 7.67822 380.917C7.12522 381.866 6.80322 382.964 6.80322 384.135C6.80322 387.675 9.69922 390.571 13.2392 390.571H405.571C409.111 390.571 412.007 387.675 412.007 384.135C412.007 382.963 411.685 381.866 411.132 380.917C410.014 382.835 407.939 384.135 405.571 384.135Z" fill="#706C4B"/>
<path d="M145.397 215.221C146.354 216.996 147.625 218.233 148.147 221.523C148.536 223.979 145.371 229.312 144.155 230.188C141.89 231.82 141.602 230.416 142.856 226.145C144.11 221.874 127.602 235.218 124.765 234.68C121.928 234.142 135.646 224.176 135.646 224.176C135.646 224.176 122.481 231.843 121.198 230.746C119.914 229.649 124.797 225.906 133.119 221.702C133.119 221.702 121.525 228.454 120.055 226.569C118.585 224.685 133.332 218.217 133.332 218.217C133.332 218.217 124.136 222.198 123.348 220.425C122.559 218.652 135.77 213.91 138.653 212.706C141.537 211.504 144.043 212.71 145.397 215.221Z" fill="#FFC1A6"/>
</svg>
